<svg xmlns="http://www.w3.org/2000/svg" width="512" height="512" x="0" y="0" viewBox="0 0 512 512"
     style="enable-background:new 0 0 512 512" xml:space="preserve">
    <g>
        <path fill="#7cd159"
              d="M512 256c0 141.38-114.62 256-256 256-59.41 0-114.1-20.25-157.54-54.2-7.22-5.65-1.41-24.39-7.98-30.76-1.16-1.13-2.72-1.87-4.52-2.36l206.7-216.56H19.61c1.82-2.08 3.17-4.16 3.62-6.22.4-1.85.13-3.7-.53-5.53h458.32c-.73 1.39-1.05 2.78-.74 4.17 2.08 9.4 29.33 19 30.34 28.77.91 8.77 1.38 17.68 1.38 26.69z"
              opacity="1"/>
        <path fill="#5eacdd"
              d="M292.66 208.12 85.96 424.68c-8.36-2.3-22.04.72-26.86-5.07C22.2 375.25 0 318.21 0 256c0-9.01.47-17.92 1.38-26.69.74-7.16 12.14-14.22 18.23-21.19z"
              opacity="1"/>
        <path fill="#28858e"
              d="M481.02 196.37H22.7c-2.69-7.43-11.85-14.73-9.44-21.89C47.3 73.07 143.12 0 256 0s208.7 73.07 242.74 174.48c2.4 7.17-13.76 14.47-17.72 21.89z"
              opacity="1"/>
        <path fill="#fcd73d"
              d="M510.62 229.31H1.38c1.96-18.97 6-37.32 11.88-54.83h485.48c5.88 17.51 9.92 35.86 11.88 54.83z"
              opacity="1"/>
        <path fill="#f1f2f0" d="M374.55 181.71 98.46 457.8a258.031 258.031 0 0 1-39.36-38.19l276.68-276.68z"
              opacity="1"/>
        <ellipse cx="323.179" cy="378.344" fill="#69c140" rx="100.628" ry="37.62" opacity="1"/>
        <path fill="#f45b83"
              d="M468.929 145.78c0 31.26-10.01 62.64-30.37 89.02l-102.95 133.38c-6.29 8.15-18.58 8.15-24.87 0L207.799 234.8c-44.79-58.03-39.51-140.28 12.32-192.11C248.579 14.23 285.879 0 323.179 0s74.6 14.23 103.06 42.69c28.27 28.27 42.69 65.59 42.69 103.09z"
              opacity="1"/>
        <path fill="#e04b79"
              d="M287.389 42.69c-31.25 51.83-34.43 134.08-7.43 192.11l59.66 128.19-4.01 5.19c-6.29 8.15-18.58 8.15-24.87 0L207.799 234.8c-44.79-58.03-39.51-140.28 12.32-192.11C248.579 14.23 285.879 0 323.179 0c5.49 0 10.98.31 16.44.92-19.08 3.58-37.6 17.5-52.23 41.77z"
              opacity="1"/>
        <path fill="#f1f2f0"
              d="M398.249 218.87c-31.04 31.04-76.51 38.84-114.81 23.4-12.86-5.18-24.91-12.98-35.33-23.4-41.46-41.46-41.46-108.68 0-150.14 11.26-11.26 24.41-19.46 38.44-24.6 37.63-13.8 81.5-5.6 111.7 24.6 41.461 41.46 41.461 108.68 0 150.14z"
              opacity="1"/>
        <path fill="#dde7e8"
              d="m279.96 234.8 3.48 7.47c-12.86-5.18-24.91-12.98-35.33-23.4-41.46-41.46-41.46-108.68 0-150.14 11.26-11.26 24.41-19.46 38.44-24.6-30.471 51.9-33.341 133.17-6.59 190.67z"
              opacity="1"/>
        <g fill="#b26a39">
        <path d="M372.163 180.949c0-27.053-21.931-48.983-48.983-48.983-27.053 0-48.983 21.931-48.983 48.983s21.931 18.202 48.983 18.202 48.983 8.851 48.983-18.202z"
              fill="#b26a39" opacity="1"/>
            <circle cx="254.605" cy="137.461" r="18.821" fill="#b26a39" opacity="1"/>
            <circle cx="299.084" cy="105.887" r="18.821" fill="#b26a39" opacity="1"/>
            <circle cx="391.754" cy="137.461" r="18.821" fill="#b26a39" opacity="1"/>
            <circle cx="347.275" cy="105.887" r="18.821" fill="#b26a39" opacity="1"/>
    </g>
    </g>
</svg>