<?xml version="1.0" encoding="UTF-8" standalone="no" ?>
<!DOCTYPE svg PUBLIC "-//W3C//DTD SVG 1.1//EN" "http://www.w3.org/Graphics/SVG/1.1/DTD/svg11.dtd">
<svg xmlns="http://www.w3.org/2000/svg" xmlns:xlink="http://www.w3.org/1999/xlink" version="1.1" width="1080" height="1080" viewBox="0 0 1080 1080" xml:space="preserve">
<desc>Created with Fabric.js 5.2.4</desc>
<defs>
</defs>
<g transform="matrix(1 0 0 1 540 540)" id="76ab0bca-0bac-4fe4-b8c2-b8b17d40c5a8"  >
<rect style="stroke: none; stroke-width: 1; stroke-dasharray: none; stroke-linecap: butt; stroke-dashoffset: 0; stroke-linejoin: miter; stroke-miterlimit: 4; fill: rgb(255,255,255); fill-rule: nonzero; opacity: 1;" vector-effect="non-scaling-stroke"  x="-540" y="-540" rx="0" ry="0" width="1080" height="1080" />
</g>
<g transform="matrix(1 0 0 1 540 540)" id="565fbae0-25cf-4b94-864b-9afa3fea06e0"  >
</g>
<g transform="matrix(1 0 0 1 540 540)"  >
<g style="" vector-effect="non-scaling-stroke"   >
		<g transform="matrix(1 0 0 1 9.81 98.19)"  >
<path style="stroke: none; stroke-width: 1; stroke-dasharray: none; stroke-linecap: butt; stroke-dashoffset: 0; stroke-linejoin: miter; stroke-miterlimit: 4; fill: rgb(124,209,89); fill-rule: nonzero; opacity: 1;" vector-effect="non-scaling-stroke"  transform=" translate(-265.81, -354.19)" d="M 512 256 C 512 397.38 397.38 512 256 512 C 196.59 512 141.9 491.75 98.46000000000001 457.8 C 91.24000000000001 452.15000000000003 97.05000000000001 433.41 90.48 427.04 C 89.32000000000001 425.91 87.76 425.17 85.96000000000001 424.68 L 292.65999999999997 208.12 L 19.61 208.12 C 21.43 206.04 22.78 203.96 23.23 201.9 C 23.63 200.05 23.36 198.20000000000002 22.7 196.37 L 481.02 196.37 C 480.28999999999996 197.76 479.96999999999997 199.15 480.28 200.54 C 482.35999999999996 209.94 509.60999999999996 219.54 510.61999999999995 229.31 C 511.53 238.08 511.99999999999994 246.99 511.99999999999994 256 z" stroke-linecap="round" />
</g>
		<g transform="matrix(1 0 0 1 -109.67 60.4)"  >
<path style="stroke: none; stroke-width: 1; stroke-dasharray: none; stroke-linecap: butt; stroke-dashoffset: 0; stroke-linejoin: miter; stroke-miterlimit: 4; fill: rgb(94,172,221); fill-rule: nonzero; opacity: 1;" vector-effect="non-scaling-stroke"  transform=" translate(-146.33, -316.4)" d="M 292.66 208.12 L 85.96 424.68 C 77.6 422.38 63.919999999999995 425.40000000000003 59.099999999999994 419.61 C 22.2 375.25 0 318.21 0 256 C 0 246.99 0.47 238.07999999999998 1.38 229.31 C 2.12 222.15 13.52 215.09 19.61 208.12 z" stroke-linecap="round" />
</g>
		<g transform="matrix(1 0 0 1 -0.08 -157.81)"  >
<path style="stroke: none; stroke-width: 1; stroke-dasharray: none; stroke-linecap: butt; stroke-dashoffset: 0; stroke-linejoin: miter; stroke-miterlimit: 4; fill: rgb(40,133,142); fill-rule: nonzero; opacity: 1;" vector-effect="non-scaling-stroke"  transform=" translate(-255.92, -98.19)" d="M 481.02 196.37 L 22.7 196.37 C 20.009999999999998 188.94 10.85 181.64000000000001 13.26 174.48000000000002 C 47.3 73.07 143.12 0 256 0 C 368.88 0 464.7 73.07 498.74 174.48 C 501.14 181.64999999999998 484.98 188.95 481.02 196.37 z" stroke-linecap="round" />
</g>
		<g transform="matrix(1 0 0 1 0 -54.1)"  >
<path style="stroke: none; stroke-width: 1; stroke-dasharray: none; stroke-linecap: butt; stroke-dashoffset: 0; stroke-linejoin: miter; stroke-miterlimit: 4; fill: rgb(252,215,61); fill-rule: nonzero; opacity: 1;" vector-effect="non-scaling-stroke"  transform=" translate(-256, -201.9)" d="M 510.62 229.31 L 1.38 229.31 C 3.34 210.34 7.38 191.99 13.260000000000002 174.48000000000002 L 498.74 174.48000000000002 C 504.62 191.99 508.66 210.34000000000003 510.62 229.31 z" stroke-linecap="round" />
</g>
		<g transform="matrix(1 0 0 1 -39.18 44.37)"  >
<path style="stroke: none; stroke-width: 1; stroke-dasharray: none; stroke-linecap: butt; stroke-dashoffset: 0; stroke-linejoin: miter; stroke-miterlimit: 4; fill: rgb(241,242,240); fill-rule: nonzero; opacity: 1;" vector-effect="non-scaling-stroke"  transform=" translate(-216.82, -300.37)" d="M 374.55 181.71 L 98.46 457.8 C 84.02058357301232 446.50437908092124 70.82607687227292 433.70208713729227 59.10000000000001 419.61 L 335.78 142.93 z" stroke-linecap="round" />
</g>
		<g transform="matrix(1 0 0 1 67.18 122.34)"  >
<ellipse style="stroke: none; stroke-width: 1; stroke-dasharray: none; stroke-linecap: butt; stroke-dashoffset: 0; stroke-linejoin: miter; stroke-miterlimit: 4; fill: rgb(105,193,64); fill-rule: nonzero; opacity: 1;" vector-effect="non-scaling-stroke"  cx="0" cy="0" rx="100.628" ry="37.62" />
</g>
		<g transform="matrix(1 0 0 1 67.18 -68.85)"  >
<path style="stroke: none; stroke-width: 1; stroke-dasharray: none; stroke-linecap: butt; stroke-dashoffset: 0; stroke-linejoin: miter; stroke-miterlimit: 4; fill: rgb(244,91,131); fill-rule: nonzero; opacity: 1;" vector-effect="non-scaling-stroke"  transform=" translate(-323.18, -187.15)" d="M 468.929 145.78 C 468.929 177.04 458.919 208.42000000000002 438.55899999999997 234.8 L 335.609 368.18 C 329.31899999999996 376.33 317.029 376.33 310.739 368.18 L 207.799 234.8 C 163.00900000000001 176.77 168.28900000000002 94.52000000000001 220.119 42.69 C 248.579 14.23 285.879 0 323.179 0 C 360.4789999999999 0 397.779 14.23 426.239 42.69 C 454.50899999999996 70.96 468.929 108.28 468.929 145.78 z" stroke-linecap="round" />
</g>
		<g transform="matrix(1 0 0 1 2.52 -68.85)"  >
<path style="stroke: none; stroke-width: 1; stroke-dasharray: none; stroke-linecap: butt; stroke-dashoffset: 0; stroke-linejoin: miter; stroke-miterlimit: 4; fill: rgb(224,75,121); fill-rule: nonzero; opacity: 1;" vector-effect="non-scaling-stroke"  transform=" translate(-258.52, -187.15)" d="M 287.389 42.69 C 256.139 94.52 252.959 176.77 279.959 234.8 L 339.619 362.99 L 335.60900000000004 368.18 C 329.319 376.33 317.02900000000005 376.33 310.73900000000003 368.18 L 207.799 234.8 C 163.00900000000001 176.77 168.28900000000002 94.52000000000001 220.119 42.69 C 248.579 14.23 285.879 0 323.179 0 C 328.669 0 334.159 0.31 339.61899999999997 0.92 C 320.539 4.5 302.01899999999995 18.42 287.38899999999995 42.690000000000005 z" stroke-linecap="round" />
</g>
		<g transform="matrix(1 0 0 1 67.18 -112.2)"  >
<path style="stroke: none; stroke-width: 1; stroke-dasharray: none; stroke-linecap: butt; stroke-dashoffset: 0; stroke-linejoin: miter; stroke-miterlimit: 4; fill: rgb(241,242,240); fill-rule: nonzero; opacity: 1;" vector-effect="non-scaling-stroke"  transform=" translate(-323.18, -143.8)" d="M 398.249 218.87 C 367.209 249.91 321.73900000000003 257.71000000000004 283.439 242.27 C 270.579 237.09 258.529 229.29000000000002 248.10900000000004 218.87 C 206.64900000000003 177.41 206.64900000000003 110.19 248.10900000000004 68.73000000000002 C 259.369 57.47000000000002 272.51900000000006 49.27000000000002 286.54900000000004 44.13000000000002 C 324.17900000000003 30.330000000000016 368.04900000000004 38.530000000000015 398.249 68.73000000000002 C 439.71000000000004 110.19000000000003 439.71000000000004 177.41000000000003 398.249 218.87 z" stroke-linecap="round" />
</g>
		<g transform="matrix(1 0 0 1 -4.22 -112.8)"  >
<path style="stroke: none; stroke-width: 1; stroke-dasharray: none; stroke-linecap: butt; stroke-dashoffset: 0; stroke-linejoin: miter; stroke-miterlimit: 4; fill: rgb(221,231,232); fill-rule: nonzero; opacity: 1;" vector-effect="non-scaling-stroke"  transform=" translate(-251.78, -143.2)" d="M 279.96 234.8 L 283.44 242.27 C 270.58 237.09 258.53 229.29000000000002 248.11 218.87 C 206.65 177.41 206.65 110.19 248.11 68.73000000000002 C 259.37 57.47000000000002 272.52000000000004 49.27000000000002 286.55 44.13000000000002 C 256.079 96.03000000000002 253.209 177.3 279.96000000000004 234.8 z" stroke-linecap="round" />
</g>
		<g transform="matrix(1 0 0 1 67.18 -89.75)"  >
<path style="stroke: none; stroke-width: 1; stroke-dasharray: none; stroke-linecap: butt; stroke-dashoffset: 0; stroke-linejoin: miter; stroke-miterlimit: 4; fill: rgb(178,106,57); fill-rule: nonzero; opacity: 1;" vector-effect="non-scaling-stroke"  transform=" translate(-323.18, -166.25)" d="M 372.163 180.949 C 372.163 153.89600000000002 350.232 131.966 323.18 131.966 C 296.127 131.966 274.197 153.89700000000002 274.197 180.949 C 274.197 208.001 296.128 199.151 323.18 199.151 C 350.232 199.151 372.163 208.002 372.163 180.949 z" stroke-linecap="round" />
</g>
		<g transform="matrix(1 0 0 1 -1.4 -118.54)"  >
<circle style="stroke: none; stroke-width: 1; stroke-dasharray: none; stroke-linecap: butt; stroke-dashoffset: 0; stroke-linejoin: miter; stroke-miterlimit: 4; fill: rgb(178,106,57); fill-rule: nonzero; opacity: 1;" vector-effect="non-scaling-stroke"  cx="0" cy="0" r="18.821" />
</g>
		<g transform="matrix(1 0 0 1 43.08 -150.11)"  >
<circle style="stroke: none; stroke-width: 1; stroke-dasharray: none; stroke-linecap: butt; stroke-dashoffset: 0; stroke-linejoin: miter; stroke-miterlimit: 4; fill: rgb(178,106,57); fill-rule: nonzero; opacity: 1;" vector-effect="non-scaling-stroke"  cx="0" cy="0" r="18.821" />
</g>
		<g transform="matrix(1 0 0 1 135.75 -118.54)"  >
<circle style="stroke: none; stroke-width: 1; stroke-dasharray: none; stroke-linecap: butt; stroke-dashoffset: 0; stroke-linejoin: miter; stroke-miterlimit: 4; fill: rgb(178,106,57); fill-rule: nonzero; opacity: 1;" vector-effect="non-scaling-stroke"  cx="0" cy="0" r="18.821" />
</g>
		<g transform="matrix(1 0 0 1 91.27 -150.11)"  >
<circle style="stroke: none; stroke-width: 1; stroke-dasharray: none; stroke-linecap: butt; stroke-dashoffset: 0; stroke-linejoin: miter; stroke-miterlimit: 4; fill: rgb(178,106,57); fill-rule: nonzero; opacity: 1;" vector-effect="non-scaling-stroke"  cx="0" cy="0" r="18.821" />
</g>
</g>
</g>
</svg>