<svg xmlns="http://www.w3.org/2000/svg" width="512" height="512" x="0" y="0" viewBox="0 0 42 59"
     style="enable-background:new 0 0 512 512">
    <path fill="#c03a2b"
          d="M42 21a33.374 33.374 0 0 1-.74 6.9C37.53 45.41 21 58 21 58S4.47 45.41.74 27.9A33.374 33.374 0 0 1 0 21C0 9.402 9.402 0 21 0s21 9.402 21 21z"
          opacity="1"/>
    <path fill="#e64c3c"
          d="M42 21a33.374 33.374 0 0 1-.74 6.9 22.217 22.217 0 0 1-40.52 0A33.374 33.374 0 0 1 0 21C0 9.402 9.402 0 21 0s21 9.402 21 21z"
          opacity="1"/>
    <circle cx="21" cy="21" r="17" fill="#ecf0f1" opacity="1"/>
    <path fill="#ffffff" d="M29 59H13a1 1 0 0 1 0-2h16a1 1 0 0 1 0 2z" opacity="0"/>
    <g fill="#3f5c6c">
        <path d="M21 31c1.684 0 2.526 1 4.21 1 3.368 0 3.368-4 1.684-6S24.368 20 21 20s-4.21 4-5.894 6-1.684 6 1.684 6c1.684 0 2.526-1 4.21-1z"
              fill="#3f5c6c" opacity="1"/>
        <ellipse cx="16" cy="13.975" rx="3" ry="4" transform="rotate(-9.85 15.95 13.942)" fill="#3f5c6c" opacity="1"/>
        <ellipse cx="10.549" cy="21.96" rx="2.5" ry="3" transform="rotate(-17.25 10.542 21.934)" fill="#3f5c6c"
                 opacity="1"/>
        <ellipse cx="26.034" cy="13.975" rx="4" ry="3" transform="rotate(-80.15 26.053 13.977)" fill="#3f5c6c"
                 opacity="1"/>
        <ellipse cx="31.451" cy="21.96" rx="3" ry="2.5" transform="rotate(-72.72 31.46 21.956)" fill="#3f5c6c"
                 opacity="1"/>
    </g>
</svg>